<?xml version="1.0" standalone="no"?>
<!DOCTYPE svg PUBLIC "-//W3C//DTD SVG 20010904//EN"
 "http://www.w3.org/TR/2001/REC-SVG-20010904/DTD/svg10.dtd">
<svg version="1.0" xmlns="http://www.w3.org/2000/svg"
 width="311.000000pt" height="194.000000pt" viewBox="0 0 311.000000 194.000000"
 preserveAspectRatio="xMidYMid meet">

<g transform="translate(0.000000,194.000000) scale(0.100000,-0.100000)"
fill="#000000" stroke="none">
<path d="M1946 1878 c-26 -41 -37 -110 -43 -285 -4 -117 -2 -191 6 -230 l12
-58 -66 -128 c-56 -107 -75 -134 -113 -162 -59 -44 -82 -45 -82 -6 0 29 14 41
50 41 10 0 32 12 49 26 57 48 31 114 -45 114 -67 0 -131 -93 -122 -179 3 -39
3 -40 -34 -46 -60 -10 -78 6 -78 70 0 70 -18 89 -75 82 l-41 -6 -15 76 c-14
68 -14 80 0 117 21 57 22 240 1 281 -32 64 -72 32 -92 -74 -10 -51 -9 -77 6
-157 l18 -95 -25 -37 c-14 -21 -39 -52 -55 -69 -28 -28 -30 -32 -16 -49 13
-18 17 -16 63 33 40 43 51 50 55 35 5 -18 26 -126 46 -232 14 -74 25 -100 45
-100 25 0 26 17 7 102 -20 87 -16 120 12 131 13 5 16 -3 16 -49 0 -46 4 -59
26 -81 26 -25 28 -26 127 -19 69 4 114 13 142 26 42 21 140 108 131 117 -3 3
15 46 41 96 l47 90 19 -24 c11 -13 27 -33 36 -44 33 -41 74 -65 110 -65 43 0
72 23 100 78 24 47 38 132 22 132 -6 0 -11 9 -11 20 0 18 7 20 65 20 36 0 65
-4 65 -8 0 -5 -10 -17 -21 -28 -12 -10 -31 -39 -41 -62 -24 -53 -18 -92 14
-92 30 0 137 111 144 150 7 33 33 40 55 14 19 -23 64 -44 94 -44 27 0 62 29
102 85 20 28 22 29 40 12 28 -25 47 -21 89 15 35 31 37 31 80 20 84 -23 151
-12 138 21 -4 12 -18 17 -50 17 -24 0 -64 5 -89 12 -43 12 -46 11 -90 -20 -45
-32 -45 -32 -65 -12 -11 11 -25 20 -30 20 -12 0 -43 -31 -83 -83 -26 -34 -54
-46 -70 -31 -3 4 8 16 26 28 43 29 62 69 50 110 -20 71 -117 50 -159 -34 -27
-53 -42 -59 -119 -49 -113 14 -144 11 -170 -16 -27 -26 -33 -72 -15 -106 20
-37 -36 -129 -79 -129 -19 0 -72 52 -98 97 l-26 45 41 76 c59 113 76 178 69
281 -10 168 -92 295 -141 219z m79 -122 c22 -74 21 -187 0 -251 -20 -59 -51
-121 -64 -129 -27 -17 -19 333 10 438 10 35 12 37 24 19 7 -10 21 -45 30 -77z
m-705 -308 c0 -64 -3 -88 -10 -78 -16 25 -11 170 6 170 2 0 4 -42 4 -92z
m1280 22 c0 -11 -9 -29 -20 -40 -24 -24 -60 -27 -60 -5 0 20 45 65 65 65 8 0
15 -9 15 -20z m-230 -180 c-17 -22 -34 -40 -36 -40 -8 0 18 44 39 67 34 38 32
17 -3 -27z m-630 -159 c0 -16 -43 -41 -69 -41 l-24 0 23 25 c23 24 70 35 70
16z"/>
<path d="M651 1335 c-16 -14 -51 -63 -77 -108 -73 -128 -132 -206 -160 -213
-19 -5 -32 0 -54 21 -32 31 -60 28 -60 -6 0 -12 12 -65 27 -118 51 -184 34
-312 -61 -445 -58 -81 -140 -144 -162 -125 -18 15 -18 130 0 221 12 64 12 67
-8 72 -11 3 -22 4 -24 2 -2 -2 -10 -46 -18 -97 -34 -207 3 -284 112 -233 79
38 179 169 214 282 31 99 24 263 -16 365 -5 15 -3 17 19 12 56 -14 115 41 203
192 65 110 94 153 105 153 10 0 14 -29 29 -179 7 -74 21 -146 41 -207 17 -51
29 -105 27 -121 l-3 -28 -82 0 c-49 0 -87 -5 -94 -12 -22 -22 1 -63 86 -154
130 -142 187 -271 202 -466 7 -92 21 -125 46 -105 21 18 25 43 47 360 19 275
37 473 43 479 2 1 11 -22 21 -52 16 -52 45 -85 73 -85 7 0 22 9 34 21 20 20
20 21 2 34 -12 9 -22 10 -30 3 -15 -12 -34 26 -58 114 -9 31 -23 59 -31 62
-22 9 -58 -22 -85 -73 -13 -24 -41 -57 -63 -73 -44 -32 -56 -35 -56 -13 0 8
-13 57 -30 108 -29 92 -43 169 -55 320 -5 58 -12 84 -26 98 -25 25 -42 24 -78
-6z m313 -650 c-7 -82 -16 -210 -20 -282 -4 -73 -10 -131 -14 -128 -10 6 -28
101 -35 190 -3 44 -13 122 -21 172 -18 121 -19 119 15 133 16 6 41 25 57 41
15 16 28 28 29 26 2 -1 -3 -69 -11 -152z m-140 -40 c25 -140 23 -145 -26 -85
-24 27 -67 77 -97 111 l-55 61 55 -7 c30 -3 65 -2 79 3 14 5 26 9 27 8 1 -1 9
-42 17 -91z"/>
<path d="M1087 1218 c-16 -12 -16 -15 3 -46 17 -28 23 -31 40 -22 21 11 19 22
-12 63 -11 15 -16 16 -31 5z"/>
</g>
</svg>
