<?xml version="1.0" standalone="no"?>
<!DOCTYPE svg PUBLIC "-//W3C//DTD SVG 20010904//EN"
 "http://www.w3.org/TR/2001/REC-SVG-20010904/DTD/svg10.dtd">
<svg version="1.0" xmlns="http://www.w3.org/2000/svg"
 width="830.000000pt" height="830.000000pt" viewBox="0 0 830.000000 830.000000"
 preserveAspectRatio="xMidYMid meet">

<g transform="translate(0.000000,830.000000) scale(0.100000,-0.100000)"
fill="#000000" stroke="none">
<path d="M3370 5215 c-120 -99 -270 -174 -407 -202 -121 -25 -183 0 -183 72 0
37 -25 59 -40 36 -4 -7 -10 -61 -13 -121 -16 -277 -97 -505 -218 -614 -109
-98 -296 -125 -346 -50 -23 36 -12 129 22 192 15 28 24 55 21 61 -16 26 -39 7
-69 -56 -57 -123 -45 -222 34 -265 28 -16 50 -19 119 -16 202 9 345 142 423
393 27 86 57 247 57 303 0 29 3 33 18 26 9 -5 62 -9 117 -8 100 0 140 11 299
79 15 7 12 -2 -14 -39 -84 -124 -171 -352 -215 -569 -71 -353 -71 -626 0 -785
43 -95 116 -151 223 -168 40 -6 42 -5 42 18 0 22 -5 26 -45 31 -156 22 -225
155 -225 436 0 283 71 628 178 863 55 121 129 223 229 318 64 60 93 95 89 105
-9 24 -27 17 -96 -40z"/>
<path d="M4030 5130 c-21 -21 -50 -61 -63 -87 -46 -92 -50 -133 -42 -434 l7
-279 -84 -82 c-95 -94 -171 -141 -220 -136 -52 5 -62 38 -66 210 -4 146 -10
168 -40 149 -6 -3 -26 -50 -46 -104 -77 -215 -162 -281 -341 -263 -53 5 -64 4
-69 -11 -9 -22 8 -31 71 -39 69 -8 126 1 188 30 63 30 106 74 149 156 l34 63
7 -69 c14 -138 62 -190 153 -165 66 17 106 44 195 130 l77 74 0 -50 c0 -27 3
-78 6 -112 6 -55 9 -62 27 -59 19 3 20 10 18 80 l-2 77 43 -12 c38 -11 46 -19
69 -66 31 -65 71 -91 142 -91 44 0 48 2 45 23 -3 19 -11 23 -54 27 -60 6 -80
20 -89 60 -4 16 -15 40 -26 54 l-20 25 23 12 c70 36 87 92 48 156 -24 41 -64
52 -102 30 -15 -9 -28 -14 -28 -13 0 2 16 37 35 77 114 244 141 618 47 668
-34 18 -50 13 -92 -29z m87 -51 c7 -19 12 -77 12 -130 1 -156 -35 -309 -107
-459 l-36 -75 -8 55 c-5 30 -8 152 -6 270 3 194 5 219 24 261 25 53 82 121 98
116 6 -2 16 -19 23 -38z m21 -721 c9 -19 10 -33 3 -46 -10 -20 -151 -76 -151
-61 0 5 4 9 9 9 5 0 11 10 15 23 3 13 19 42 36 66 36 49 67 52 88 9z"/>
<path d="M4812 5107 c-53 -56 -145 -346 -162 -507 -5 -56 -10 -155 -10 -219 0
-64 -3 -126 -6 -138 -12 -44 -184 -143 -248 -143 -31 0 -58 42 -54 83 3 31 5
32 54 37 62 6 96 28 118 73 21 46 20 85 -4 124 -39 65 -99 53 -157 -32 -38
-55 -52 -97 -60 -186 -7 -84 10 -120 68 -143 24 -10 46 -13 53 -8 6 5 29 14
51 20 22 6 70 30 107 52 37 22 69 40 72 40 4 0 6 -9 6 -21 0 -82 89 -97 173
-28 72 60 98 110 132 263 l6 29 36 -34 c44 -42 93 -142 93 -191 0 -45 -36 -78
-86 -78 -28 0 -34 4 -34 21 0 11 4 29 10 39 11 20 -11 47 -29 36 -16 -10 -33
-75 -27 -100 18 -70 162 -52 204 25 41 77 -53 280 -148 319 -41 17 -66 -5 -75
-66 -13 -90 -35 -142 -80 -192 -24 -27 -59 -55 -76 -62 -28 -12 -33 -12 -45 5
-25 34 -17 83 21 127 45 53 117 194 144 280 34 111 51 236 51 368 0 130 -10
189 -36 215 -21 21 -37 19 -62 -8z m54 -143 c11 -141 -24 -356 -82 -498 -25
-62 -84 -166 -94 -166 -8 0 -1 212 10 317 17 156 128 482 150 442 5 -9 12 -51
16 -95z m-408 -566 c19 -19 14 -73 -9 -102 -17 -21 -29 -26 -65 -26 -42 0 -45
2 -39 23 14 45 69 117 90 117 6 0 16 -5 23 -12z"/>
<path d="M3569 4684 c-12 -33 -12 -31 12 -37 15 -4 22 1 30 19 12 33 12 31
-12 37 -15 4 -22 -1 -30 -19z"/>
<path d="M5238 4446 c-22 -22 -66 -130 -67 -166 0 -8 -3 -29 -7 -46 -14 -74
38 -164 95 -164 42 0 78 41 165 185 39 65 76 121 83 123 14 4 20 -26 30 -173
7 -102 10 -110 30 -113 23 -3 33 20 73 177 12 47 25 92 30 100 16 29 36 -48
56 -213 11 -98 74 -120 172 -59 47 29 53 42 29 57 -9 6 -26 0 -53 -18 -21 -14
-51 -26 -66 -26 -30 0 -29 -4 -48 144 -18 137 -63 203 -111 160 -10 -9 -30
-51 -43 -91 l-23 -75 -7 64 c-10 104 -57 144 -108 93 -15 -15 -53 -72 -86
-129 -62 -105 -107 -166 -123 -166 -20 0 -49 65 -47 105 3 35 7 40 36 49 49
14 92 68 92 115 0 43 -31 91 -59 91 -10 0 -29 -11 -43 -24z m55 -48 c5 -18
-16 -78 -27 -78 -3 0 -11 -3 -20 -6 -21 -8 -20 11 4 64 21 47 35 53 43 20z"/>
</g>
</svg>
